<svg width="360" height="348" viewBox="0 0 360 348" fill="none" xmlns="http://www.w3.org/2000/svg">
<path opacity="0.2" d="M186.5 347.646C282.321 347.646 360 269.967 360 174.146C360 78.3246 282.321 0.645996 186.5 0.645996C90.6786 0.645996 13 78.3246 13 174.146C13 269.967 90.6786 347.646 186.5 347.646Z" fill="white" fill-opacity="0.53"/>
<path d="M187.064 309.696C261.678 309.696 322.164 249.21 322.164 174.596C322.164 99.9823 261.678 39.496 187.064 39.496C112.45 39.496 51.9639 99.9823 51.9639 174.596C51.9639 249.21 112.45 309.696 187.064 309.696Z" fill="url(#paint0_linear_61_5)"/>
<path d="M348.499 103.16C354.851 103.16 360 98.0108 360 91.659C360 85.3071 354.851 80.158 348.499 80.158C342.147 80.158 336.998 85.3071 336.998 91.659C336.998 98.0108 342.147 103.16 348.499 103.16Z" fill="#22927E"/>
<path d="M16.4199 103.159C25.1532 103.159 32.2329 96.0792 32.2329 87.346C32.2329 78.6127 25.1532 71.533 16.4199 71.533C7.68666 71.533 0.606934 78.6127 0.606934 87.346C0.606934 96.0792 7.68666 103.159 16.4199 103.159Z" fill="#22927E"/>
<path d="M275.183 301.545C279.153 301.545 282.371 298.327 282.371 294.357C282.371 290.387 279.153 287.169 275.183 287.169C271.213 287.169 267.995 290.387 267.995 294.357C267.995 298.327 271.213 301.545 275.183 301.545Z" fill="#22927E"/>
<defs>
<linearGradient id="paint0_linear_61_5" x1="51.9639" y1="83.5386" x2="322.164" y2="265.653" gradientUnits="userSpaceOnUse">
<stop stop-color="#1FE5B7"/>
<stop offset="1" stop-color="#235050"/>
</linearGradient>
</defs>
</svg>
