<svg width="360" height="348" viewBox="0 0 360 348" fill="none" xmlns="http://www.w3.org/2000/svg">
<path opacity="0.2" d="M173.5 347.646C269.321 347.646 347 269.967 347 174.146C347 78.3246 269.321 0.645996 173.5 0.645996C77.6786 0.645996 0 78.3246 0 174.146C0 269.967 77.6786 347.646 173.5 347.646Z" fill="white" fill-opacity="0.53"/>
<path d="M172.936 304.796C245.34 304.796 304.036 246.1 304.036 173.696C304.036 101.291 245.34 42.5959 172.936 42.5959C100.531 42.5959 41.8359 101.291 41.8359 173.696C41.8359 246.1 100.531 304.796 172.936 304.796Z" fill="url(#paint0_linear_65_7)"/>
<path d="M11.501 268.134C17.8528 268.134 23.002 262.985 23.002 256.633C23.002 250.281 17.8528 245.132 11.501 245.132C5.14917 245.132 0 250.281 0 256.633C0 262.985 5.14917 268.134 11.501 268.134Z" fill="#22927E"/>
<path d="M343.579 276.758C352.312 276.758 359.392 269.678 359.392 260.945C359.392 252.212 352.312 245.132 343.579 245.132C334.846 245.132 327.766 252.212 327.766 260.945C327.766 269.678 334.846 276.758 343.579 276.758Z" fill="#22927E"/>
<path d="M84.8169 61.1229C88.7867 61.1229 92.0049 57.9048 92.0049 53.9349C92.0049 49.9651 88.7867 46.7469 84.8169 46.7469C80.8471 46.7469 77.6289 49.9651 77.6289 53.9349C77.6289 57.9048 80.8471 61.1229 84.8169 61.1229Z" fill="#22927E"/>
<defs>
<linearGradient id="paint0_linear_65_7" x1="304.036" y1="262.057" x2="41.8359" y2="85.3345" gradientUnits="userSpaceOnUse">
<stop stop-color="#1FE5B7"/>
<stop offset="1" stop-color="#235050"/>
</linearGradient>
</defs>
</svg>
