<svg id="Grupo_2578" data-name="Grupo 2578" xmlns="http://www.w3.org/2000/svg" width="37.313" height="14.021" viewBox="0 0 37.313 14.021">
  <path id="Trazado_757" data-name="Trazado 757" d="M37.261,8.185c-.154-1.954-1.666-2.544-3.3-3.038a28.673,28.673,0,0,0-6.958-.976C24.057,2.538,21.861.258,18.3.069c-1.662-.088-3.877-.091-5.538,0-3.572.2-5.625,2.545-8.9,3.113C2.431,3.431.52,3.1-.01,4.8V9.025A2.5,2.5,0,0,0,1.9,10.937a19.883,19.883,0,0,1,2.264.648c.071.043.5.934.674,1.147a3.426,3.426,0,0,0,5.647-.419L27.311,12.3a3.459,3.459,0,1,0,.269-3.889,3.986,3.986,0,0,0-.729,1.6v1.2H10.982v-1.2a3.986,3.986,0,0,0-.729-1.6,3.482,3.482,0,0,0-6.186,2c-.742-.3-2.349-.4-2.8-1.095a2.859,2.859,0,0,1-.185-.4V6.988c.413-.021,1.079.154,1.163-.407.1-.681-.665-.718-1.163-.685C1.1,5.273.9,4.726,1.66,4.546c.945-.225,2.08-.192,3.077-.418a11.5,11.5,0,0,0,2.28-.851c.714.508,1.187,1.31,2.022,1.687a5.906,5.906,0,0,0,2.636.279c.782-.09.478-1.093,0-1.093H10.254l.6-2.679a19.852,19.852,0,0,1,4.862-.305V4.15H13.93c-.51,0-.759.932-.144,1.09,5.081.192,10.383-.312,15.428.148a17.3,17.3,0,0,1,6.369,1.6l-.036.145c-.476,0-1.161-.142-1.133.544a.624.624,0,0,0,.551.548h1.2v2.366a1.687,1.687,0,0,1-.222.434c-.273.263-.969.1-.949.728.03.933,1.449.448,1.857-.111.533-.73.48-2.545.408-3.455Zm-7.444.058c3.591-.521,3.709,4.609.559,4.714-2.944.1-3.275-4.32-.559-4.714Zm-22.784,0c3.561-.557,3.8,4.608.561,4.716C4.715,13.053,4.327,8.665,7.032,8.241Zm2.2-4.53c-.152.152-1.026-.857-1.164-1.018.258-.015,1.388-.759,1.529-.655L9.235,3.711Zm7.57.437V1.273a.237.237,0,0,1,.182-.109,8.85,8.85,0,0,1,1.382,0,7.652,7.652,0,0,1,3.189.887l3.254,2.1H16.805Z" transform="translate(0.01 -0.001)" fill="#2adc9f"/>
</svg>
