<svg xmlns="http://www.w3.org/2000/svg" xmlns:xlink="http://www.w3.org/1999/xlink" width="42.026" height="23.532" viewBox="0 0 42.026 23.532">
  <defs>
    <clipPath id="clip-path">
      <rect id="Rectángulo_790" data-name="Rectángulo 790" width="42.026" height="23.532" fill="#2adc9f"/>
    </clipPath>
  </defs>
  <g id="Grupo_2582" data-name="Grupo 2582" clip-path="url(#clip-path)">
    <path id="Trazado_759" data-name="Trazado 759" d="M37.535,20.948a4.505,4.505,0,0,1-8.149,0l-16.63-.027a4.548,4.548,0,0,1-8.216.027c-2.2.226-4.224-.694-4.43-3.09C.387,13.084-.241,7.93.11,3.2A3.268,3.268,0,0,1,3.059.005L27.777,0a3.34,3.34,0,0,1,2.28,1.12c2.194,2.347,4.1,6.274,6.347,8.43,1.717,1.648,4.37.786,5.319,3.312a18.047,18.047,0,0,1,.242,5c-.206,2.4-2.235,3.316-4.43,3.09m2.856-7.867c-.643-1.144-1.915-.962-3.006-1.375-3.061-1.158-6.029-7.388-8.372-9.8L28.3,1.436C19.815,1.2,11.246,1.277,2.753,1.4a1.973,1.973,0,0,0-1.33,1.677L1.416,13c1.926.3,2.134,1.725,1.974,3.415a1.993,1.993,0,0,1-1.835,1.893,2.226,2.226,0,0,0,2.485,1.307,4.617,4.617,0,1,1,9.152,0H28.885a4.617,4.617,0,1,1,9.152,0A2.161,2.161,0,0,0,40.654,17a3.448,3.448,0,0,1-3.647-1.91c-.19-.44-.566-2.012.182-2.012ZM1.423,14.388V17c.978.092.96-2.726,0-2.615m39.23,0H38.168A2.17,2.17,0,0,0,40.653,15.7ZM8.06,15.73c-3.694.522-3.543,6.2.229,6.5,4.835.381,4.689-7.2-.229-6.5m24.846,0c-3.694.522-3.543,6.2.229,6.5,4.835.381,4.689-7.2-.229-6.5" transform="translate(0 0.001)" fill="#2adc9f"/>
    <path id="Trazado_760" data-name="Trazado 760" d="M175.418,16.186c-.338-.27-3.421-.288-3.634.048v6.1c.129.2.5.205.724.223a47.054,47.054,0,0,0,6.157,0c2.32-.2-.986-2.837-1.22-3.63-.279-.945.553-1.258,1.275-.49a17.5,17.5,0,0,1,2.04,2.928,1.961,1.961,0,0,1-1.834,2.5,47.427,47.427,0,0,1-6.805,0,1.955,1.955,0,0,1-1.765-1.765,37.435,37.435,0,0,1,.088-6.058,1.934,1.934,0,0,1,.972-1.12,12.091,12.091,0,0,1,3.944-.18c.811.148,2.393,1.84,1.612,2.466s-1.193-.73-1.554-1.019" transform="translate(-148.01 -12.742)" fill="#2adc9f"/>
    <path id="Trazado_761" data-name="Trazado 761" d="M183.333,89.985c.276.274.2.971-.218,1.089-.759.211-2.659.29-2.149-.958.176-.43,2.108-.389,2.367-.131" transform="translate(-157.227 -78.05)" fill="#2adc9f"/>
    <path id="Trazado_762" data-name="Trazado 762" d="M141.7,89.7c.307.308.356,1.759-.435,1.791-1.4.056-.634-2.866.435-1.791" transform="translate(-122.13 -77.762)" fill="#2adc9f"/>
    <path id="Trazado_763" data-name="Trazado 763" d="M52.493,129.986a1.978,1.978,0,0,1,.855,3.862,1.978,1.978,0,0,1-.855-3.862m.918,1.44c-.894-.893-1.827,1.19-.434,1.137a.68.68,0,0,0,.434-1.137" transform="translate(-44.305 -112.951)" fill="#2adc9f"/>
    <path id="Trazado_764" data-name="Trazado 764" d="M242.493,129.986a1.978,1.978,0,0,1,.855,3.862,1.978,1.978,0,0,1-.855-3.862m.918,1.44c-.893-.893-1.827,1.19-.434,1.137a.68.68,0,0,0,.434-1.137" transform="translate(-209.46 -112.951)" fill="#2adc9f"/>
  </g>
</svg>
