<svg xmlns="http://www.w3.org/2000/svg" width="34.958" height="23.618" viewBox="0 0 34.958 23.618">
  <path id="Trazado_755" data-name="Trazado 755" d="M34.7,17.161a5.3,5.3,0,0,0-1.519-2.232c1.552-.779-.173-2.583-1.056-3.172a5.524,5.524,0,0,0-3.3-.9c-.25-.389-.879-1.85-1.213-2.026a.509.509,0,0,0-.758.493c.031.334,1.1,1.806,1.063,1.978a10.18,10.18,0,0,0-3.2,7l-9.679.072a8.034,8.034,0,0,0-.425-2.814,5.706,5.706,0,0,0-5.064-3.527c-.488-.021-1.154-.071-1.127.577s.931.408,1.392.453a4.672,4.672,0,0,1,4.2,4.321v.989H1.066a5.168,5.168,0,0,1,4.283-5.229c.389-.066,1.344-.043,1.548-.225a.5.5,0,0,0-.29-.871,7.075,7.075,0,0,0-1.725.152,7.008,7.008,0,0,0-3.338,1.945A8.082,8.082,0,0,1,6.23,9.322a9.409,9.409,0,0,1,1.893-.494h8.762c-.653,1.91-1.747,3.624-1.026,5.7,1.046,3,4.22,3.063,6.926,2.829,1.651-.143,2.055-1.853,2.149-3.238a23.525,23.525,0,0,0-1.366-8.492h1.125c.122,0,.945,1.9,1.289,2.052a.476.476,0,0,0,.618-.144c.362-.5-.57-1.4-.714-1.908H27.08c.348,0,.679-.527.716-.852a16.307,16.307,0,0,0,0-2.518.924.924,0,0,0-1.172-.7l-4.074,1c.02-.309.22-.4.085-.732a12.1,12.1,0,0,0-1-1.246c-.3-.318-.422-.5-.885-.547A9.842,9.842,0,0,0,18.255.14c-.833.352-.619,2.273.641,2.415a23.679,23.679,0,0,1,2.374.013,5.9,5.9,0,0,1,.49.53c.032.071-.095.306-.1.446a6.3,6.3,0,0,1-.03.992c-.105.149-1.871.306-2.2.457a.513.513,0,0,0,.221.974c.559.024,2.5-.709,2.862-.275a29.432,29.432,0,0,1,1.173,4.418,15.137,15.137,0,0,1,.225,4.069c-.081.726-.212,2.04-1.123,2.15a15.431,15.431,0,0,1-4.105-.194A3.366,3.366,0,0,1,16.7,13.819c-.409-1.787,1.007-3.785,1.417-5.5a3.247,3.247,0,0,0-2.9-3.1c-2.472-.227-5.269.17-7.776,0-1.428.2-1.151,1.977-.373,2.765-.7.277-1.44.471-2.115.816A9.5,9.5,0,0,0,.04,18.274c.138,1.557,1.811,1.008,2.871,1.152a4.918,4.918,0,0,0,9.56.7c.051-.164.107-.683.23-.725L24.15,19.4A7.593,7.593,0,0,1,25.2,19.26a4.891,4.891,0,0,0,8.047,3.172,5.544,5.544,0,0,0,1.7-2.967V18.1l-.254-.94Zm-8.748-14.4.818-.2V4.6h-.818V2.758Zm-4.91-1.228H18.863a1.443,1.443,0,0,1-.068-.477H20.67C20.7,1.053,21.09,1.44,21.045,1.531Zm1.637,2.046,2.25-.546V4.6h-2.25V3.576ZM7.408,6.236h8.012a6.083,6.083,0,0,1,.571.247,2.279,2.279,0,0,1,1.031,1.322H8.533c-.522,0-1.243-1.033-1.125-1.568ZM9.658,19.4a2,2,0,0,1-3.75,0ZM4,19.4a8.329,8.329,0,0,1,.877.009c.037.023.225.649.314.811a2.989,2.989,0,0,0,5.491-.821h.955A3.882,3.882,0,0,1,4,19.4Zm21.753-1.979a9.507,9.507,0,0,1,.339-1.4A9.914,9.914,0,0,1,27.633,13.2a15.473,15.473,0,0,1,1.12-1.267,3.833,3.833,0,0,1,1.757.15,3.677,3.677,0,0,1,2.265,1.928c-2.118-.025-5.052.755-6.408,2.491a6.323,6.323,0,0,0-.446.784C25.9,17.326,25.863,17.539,25.751,17.418Zm5.7.748a8.7,8.7,0,0,0-.514-1.155,1.841,1.841,0,0,1,.945,2.478,1.992,1.992,0,0,1-3.239.634,1.913,1.913,0,0,1-.5-1.816l.691,1.183A1.512,1.512,0,0,0,31.447,18.166Zm-1.868.641-1.373-2.582c.175-.061.812-.535.949-.438l1.286,2.5a.506.506,0,0,1-.861.52Zm-1.488,3.261a4.014,4.014,0,0,1-1.939-3.184c0-.3.309-.49.471-.763.256-.43.373-.972.831-1.248.143.325-.149.6-.252.94a2.991,2.991,0,1,0,4.05-1.84c-.224-.093-1.009-.241-1.051-.278a.516.516,0,0,1-.085-.324c.392-.021.951-.295,1.326-.27.658.043,1.778,1.24,2.071,1.816a3.893,3.893,0,0,1-5.42,5.148Z" transform="translate(0.002 -0.001)" fill="#2adc9f"/>
</svg>
