<svg xmlns="http://www.w3.org/2000/svg" xmlns:xlink="http://www.w3.org/1999/xlink" width="41.542" height="19.467" viewBox="0 0 41.542 19.467">
  <defs>
    <clipPath id="clip-path">
      <rect id="Rectángulo_789" data-name="Rectángulo 789" width="41.542" height="19.467" fill="#2adc9f"/>
    </clipPath>
  </defs>
  <g id="Grupo_2579" data-name="Grupo 2579" clip-path="url(#clip-path)">
    <path id="Trazado_758" data-name="Trazado 758" d="M13.886,1.612C14.046.812,15.145.231,15.9.139A52.067,52.067,0,0,1,25.3.289c2.235.548,4.761,4.141,6.8,5.361,2.179.41,4.635.223,6.805.566a2.8,2.8,0,0,1,2.536,2.508,41.552,41.552,0,0,1,0,5.954,2.071,2.071,0,0,1-1.333,1.9c-.5.163-1.419,0-1.651.159-.081.055-.429.878-.587,1.094A4.242,4.242,0,0,1,31.6,18.3c-.375-.371-.916-1.565-1.222-1.623l-15.393,0c-.47.086-.713-.465-.969-.583-.415-.191-1.2-.009-1.674-.061a4.065,4.065,0,0,1-8.029,0c-.116-.114-2.737.087-3.265-.033C-.1,15.746-.083,13.921.079,13.023c.105-.584.556-.685.623-1.188.227-1.722-.632-5.258.834-6.408a5.547,5.547,0,0,1,.647-.388h11.51l.194-.194c.13-.946-.177-2.354,0-3.233M16.6,1.547c-.425-.1-1.423.027-1.423.582V15.191l.194.194H30.245c.3-.441.239-1.07.447-1.622a4.206,4.206,0,0,1,5.738-2.106c.287.142,1.112.883,1.186.883h2.393V10.47H38.134a3.9,3.9,0,0,1-.833-.46c-.764-.653-.656-1.52-.672-2.432l-.194-.194c-1.248.07-2.491-.23-3.727-.282-4.463-.187-9.642.439-13.971,0a2.919,2.919,0,0,1-1.426-.514,3.236,3.236,0,0,1-.71-1.1Zm4.785,0H18.024V5.233a.754.754,0,0,0,.453.453h2.91Zm8.535,4.138c-.949-.7-4.125-4.138-5.108-4.138h-2V5.685ZM2.117,7.755l1.109-.12c.813-1.056.057-1.8-.989-.989Zm11.769,6.854V6.526l-.194-.194H5.027c-.355.362-.123.912-.255,1.426C4.506,8.8,3.089,9.283,2.117,9.177v2.716c1.164-.105,2.555.141,3.689,0,.6-.073,1.106-.549,1.822-.635A4.035,4.035,0,0,1,12.339,14.6ZM40.01,9.178c.154-1.3-.95-1.7-2.07-1.553-.194,1.657.717,1.62,2.07,1.553M8.038,12.57c-3.64.4-3.008,6.017.729,5.519,3.365-.449,2.836-5.911-.729-5.519m26.254,0c-3.564.319-3.158,5.843.479,5.536s3.114-5.857-.479-5.536M4.7,13.316H1.471v1.293H4.316A2.525,2.525,0,0,1,4.7,13.316m35.306.646H38.458l.264,1.415a1.327,1.327,0,0,0,1.168-.307Z" transform="translate(0 0)" fill="#2adc9f"/>
  </g>
</svg>
