<svg xmlns="http://www.w3.org/2000/svg" width="11" height="14" viewBox="0 0 11 14">
  <g id="Grupo_9" data-name="Grupo 9" transform="translate(-54 -337)">
    <g id="Elipse_6" data-name="Elipse 6" transform="translate(56 337)" fill="none" stroke="#27d79e" stroke-width="1">
      <circle cx="3.5" cy="3.5" r="3.5" stroke="none"/>
      <circle cx="3.5" cy="3.5" r="3" fill="none"/>
    </g>
    <g id="Rectángulo_3" data-name="Rectángulo 3" transform="translate(54 345)" fill="none" stroke="#27d79e" stroke-width="1">
      <path d="M5.5,0h0A5.5,5.5,0,0,1,11,5.5V6a0,0,0,0,1,0,0H0A0,0,0,0,1,0,6V5.5A5.5,5.5,0,0,1,5.5,0Z" stroke="none"/>
      <path d="M5.5.5h0a5,5,0,0,1,5,5v0a0,0,0,0,1,0,0H.5a0,0,0,0,1,0,0v0A5,5,0,0,1,5.5.5Z" fill="none"/>
    </g>
  </g>
</svg>
