<svg width="75" height="33" viewBox="0 0 75 33" fill="none" xmlns="http://www.w3.org/2000/svg">
<path d="M54.2312 0.306507C55.5231 3.64312 56.9988 10.4098 53.5362 17.8444C53.5 17.9397 53.6209 18.0236 53.7511 17.9397C57.8977 15.2257 61.511 10.0227 62.6994 5.77071C58.5743 3.65778 56.0912 1.47476 54.5904 0.0760643C54.3897 -0.116811 54.1446 0.0930155 54.2312 0.306507Z" fill="white"/>
<path d="M5.18579 23.6394C4.0038 23.2349 3.65882 23.0406 3.65882 22.5367C3.65882 22.0804 4.15682 21.7349 4.81608 21.7349C5.43685 21.7349 6.08695 21.9168 6.80348 22.2893C6.81676 22.2971 6.83051 22.2989 6.84471 22.2989C6.85799 22.2989 6.87265 22.2971 6.88411 22.2893C6.90885 22.2787 6.92671 22.2535 6.93175 22.2242L7.12417 20.9937C7.1315 20.9561 7.10997 20.9162 7.07286 20.9011C6.42047 20.6088 5.6366 20.4485 4.8596 20.4485C3.3253 20.4485 2.25326 21.3744 2.25326 22.6993C2.25326 23.9189 3.07195 24.4274 4.68184 24.99C5.7493 25.3561 6.10436 25.5737 6.10436 26.1358C6.10436 26.7034 5.56422 27.0704 4.72628 27.0704C4.03266 27.0704 3.08844 26.8129 2.32427 26.413C2.31007 26.4066 2.29632 26.4038 2.28304 26.4038C2.26792 26.4038 2.25601 26.4066 2.2441 26.413C2.21798 26.4263 2.20103 26.4505 2.19508 26.4789L2.00083 27.6761C1.99533 27.7173 2.01778 27.7562 2.05305 27.7713C2.9226 28.142 3.85124 28.3431 4.66718 28.3431C6.36825 28.3431 7.51038 27.3897 7.51038 25.9741C7.51038 24.6927 6.69306 24.1654 5.18579 23.6394Z" fill="white"/>
<path d="M15.2034 20.5516H13.8565C13.807 20.5516 13.7676 20.591 13.7676 20.6409V25.204C13.7676 26.4249 13.194 27.0695 12.1078 27.0695C11.0476 27.0695 10.464 26.396 10.464 25.1737V20.6405C10.464 20.5905 10.4246 20.5511 10.3751 20.5511H9.04238C8.99336 20.5511 8.95442 20.5905 8.95442 20.6405V25.2324C8.95442 27.2083 10.1286 28.388 12.0931 28.388C14.0961 28.388 15.2923 27.1859 15.2923 25.1733V20.64C15.2918 20.591 15.252 20.5516 15.2034 20.5516Z" fill="white"/>
<path d="M19.7046 24.0788H18.8438V21.8559H19.7326C20.3831 21.8559 21.1546 22.0483 21.1546 22.9669C21.1546 23.7164 20.6809 24.0788 19.7046 24.0788ZM19.8659 20.5516H17.4231C17.3741 20.5516 17.3351 20.591 17.3351 20.6409V28.1507C17.3351 28.1997 17.3741 28.2405 17.4231 28.2405H18.7549C18.8044 28.2405 18.8438 28.1997 18.8438 28.1507V25.3657H19.7046C21.5665 25.3657 22.6353 24.4792 22.6353 22.9371C22.6358 21.466 21.5743 20.5516 19.8659 20.5516Z" fill="white"/>
<path d="M28.9759 26.8926H25.6274V24.9208H28.3964C28.4234 24.9208 28.4482 24.9094 28.4642 24.8906C28.4802 24.8713 28.4903 24.8443 28.4848 24.8177L28.2928 23.6467C28.2841 23.6041 28.2484 23.5739 28.2058 23.5739H25.6274V21.899H28.8706C28.9191 21.899 28.9594 21.86 28.9594 21.8101V20.6414C28.9594 20.5914 28.9191 20.552 28.8706 20.552H24.2049C24.1572 20.552 24.1178 20.5914 24.1178 20.6414V28.1507C24.1178 28.1997 24.1577 28.2405 24.2049 28.2405H28.9759C29.0236 28.2405 29.0639 28.1997 29.0639 28.1507V26.9811C29.0639 26.9325 29.0236 26.8926 28.9759 26.8926Z" fill="white"/>
<path d="M34.5153 22.9673C34.5153 23.7127 34.0095 24.1228 33.0941 24.1228H32.2044V21.8848H33.0941C33.7433 21.8843 34.5153 22.0717 34.5153 22.9673ZM34.5084 25.1274C35.4879 24.7495 36.0262 23.9816 36.0262 22.9518C36.0262 21.4495 34.9345 20.5516 33.1083 20.5516H30.7819C30.7347 20.5516 30.6958 20.591 30.6958 20.6391V28.1512C30.6958 28.1993 30.7352 28.24 30.7819 28.24H32.1174C32.1655 28.24 32.2049 28.1993 32.2049 28.1512V25.3359H32.8852L34.9583 28.2918C34.9752 28.3152 35.0018 28.3285 35.0284 28.3285C35.0366 28.3285 35.0426 28.3275 35.0481 28.3257L36.4275 28.0137C36.4559 28.0082 36.4807 27.9867 36.4917 27.9592C36.5008 27.9299 36.4972 27.8996 36.4793 27.8744L34.5084 25.1274Z" fill="white"/>
<path d="M44.1 20.5589H42.7549C42.7164 20.5589 42.6834 20.5814 42.6706 20.6162L40.5613 26.2435L38.4933 20.6143C38.4818 20.5795 38.4475 20.5529 38.4104 20.5529H36.9461C36.9191 20.5594 36.898 20.5754 36.887 20.5983C36.8728 20.6208 36.8728 20.6482 36.8815 20.6716L39.8095 28.1768C39.8228 28.2107 39.8562 28.2341 39.8906 28.2341H41.1262C41.161 28.2341 41.1935 28.2107 41.2064 28.1768L44.1852 20.6785C44.1948 20.6533 44.1925 20.6212 44.1755 20.5965C44.1572 20.5731 44.1306 20.5589 44.1 20.5589Z" fill="white"/>
<path d="M47.0119 20.5516H45.665C45.6173 20.5516 45.5761 20.591 45.5761 20.6409V28.1507C45.5761 28.1997 45.6173 28.2405 45.665 28.2405H47.0119C47.0637 28.2405 47.1008 28.1997 47.1008 28.1507V20.6409C47.1008 20.591 47.0637 20.5516 47.0119 20.5516Z" fill="white"/>
<path d="M54.4053 26.8926H51.0567V24.9208H53.8276C53.8528 24.9208 53.8757 24.9094 53.8944 24.8906C53.9114 24.8713 53.9192 24.8443 53.9146 24.8177L53.7203 23.6467C53.7148 23.6041 53.6777 23.5739 53.6333 23.5739H51.0567V21.899H54.3008C54.3503 21.899 54.3897 21.86 54.3897 21.8101V20.6414C54.3897 20.5914 54.3503 20.552 54.3008 20.552H49.6347C49.5866 20.552 49.5476 20.5914 49.5476 20.6414V28.1507C49.5476 28.1997 49.5866 28.2405 49.6347 28.2405H54.4048C54.4534 28.2405 54.4928 28.1997 54.4928 28.1507V26.9811C54.4932 26.9325 54.4538 26.8926 54.4053 26.8926Z" fill="white"/>
<path d="M66.6023 26.9059H63.8461V20.6391C63.8461 20.591 63.8072 20.5516 63.7581 20.5516H62.4254C62.3759 20.5516 62.3365 20.591 62.3365 20.6391V28.1512C62.3365 28.1993 62.3759 28.24 62.4254 28.24H66.7928C66.8194 28.24 66.8451 28.2277 66.862 28.208C66.8781 28.1873 66.8854 28.1635 66.8808 28.1356L66.6911 26.9802C66.682 26.938 66.6462 26.9059 66.6023 26.9059Z" fill="white"/>
<path d="M72.9759 26.8926H69.6282V24.9208H72.3981C72.4252 24.9208 72.4481 24.9094 72.4659 24.8906C72.4829 24.8713 72.4911 24.8443 72.4856 24.8177L72.2932 23.6467C72.2859 23.6041 72.2483 23.5739 72.2057 23.5739H69.6282V21.899H72.8723C72.9222 21.899 72.9621 21.86 72.9621 21.8101V20.6414C72.9621 20.5914 72.9222 20.552 72.8723 20.552H68.208C68.1576 20.552 68.1182 20.5914 68.1182 20.6414V28.1507C68.1182 28.1997 68.1576 28.2405 68.208 28.2405H72.9754C73.0249 28.2405 73.0643 28.1997 73.0643 28.1507V26.9811C73.0647 26.9325 73.0253 26.8926 72.9759 26.8926Z" fill="white"/>
<path d="M72.8966 9.07019C69.4638 8.52913 66.1226 7.40258 63.9432 6.36948C62.6833 9.6731 60.2511 13.2145 57.7016 15.6495C57.5632 15.7691 57.6745 15.9748 57.9013 15.8117C63.344 12.0508 69.0093 10.2453 72.9021 9.49168C73.1137 9.44174 73.1183 9.12884 72.8966 9.07019Z" fill="white"/>
<path d="M60.7445 26.9059H57.9884V20.6391C57.9884 20.591 57.9499 20.5516 57.8995 20.5516H56.5681C56.5191 20.5516 56.4793 20.591 56.4793 20.6391V28.1512C56.4793 28.1993 56.5191 28.24 56.5681 28.24H60.9374C60.9631 28.24 60.9869 28.2277 61.0066 28.208C61.0208 28.1873 61.0295 28.1617 61.0244 28.1356L60.8297 26.9802C60.8247 26.938 60.7876 26.9059 60.7445 26.9059Z" fill="white"/>
</svg>
