<svg width="75" height="34" viewBox="0 0 75 34" fill="none" xmlns="http://www.w3.org/2000/svg">
<path d="M39.6154 24.17L30.4669 15V33.3185L39.6154 24.17Z" fill="white"/>
<path d="M21.3184 24.17L30.4669 15H12.17L21.3184 24.17Z" fill="white"/>
<path d="M3 24.17L12.17 33.3185V15L3 24.17Z" fill="white"/>
<path d="M21.3184 24.17L12.17 33.3184H30.4669L21.3184 24.17Z" fill="white"/>
<path d="M47.6445 24.7081H44.3295V27.98H42.6721V20.3169H44.3295V23.4596H47.6445V20.3169H49.302V27.98H47.6445V24.7081Z" fill="white"/>
<path d="M53.3058 28.1307C51.6483 28.1307 50.2922 27.4634 50.2707 25.6337H51.9281C51.9497 26.4517 52.4232 26.9468 53.3273 26.9468C53.9946 26.9468 54.7696 26.6024 54.7696 25.849C54.7696 25.2463 54.2529 25.0741 53.3919 24.8158L52.8322 24.6651C51.6268 24.3207 50.4213 23.8471 50.4213 22.4694C50.4213 20.7689 52.0142 20.1877 53.4565 20.1877C54.9418 20.1877 56.2333 20.7043 56.2548 22.4049H54.5973C54.5328 21.716 54.1238 21.3071 53.3488 21.3071C52.7246 21.3071 52.1219 21.6299 52.1219 22.3188C52.1219 22.8784 52.6385 23.0506 53.7148 23.3951L54.3606 23.5888C55.6736 23.9978 56.5131 24.4498 56.5131 25.7414C56.4916 27.4634 54.8126 28.1307 53.3058 28.1307Z" fill="white"/>
<path d="M57.4388 20.3384H60.1079C60.603 20.3169 61.1197 20.3384 61.6148 20.4245C62.5404 20.6398 63.2507 21.2425 63.2507 22.2757C63.2507 23.2659 62.6265 23.761 61.7224 23.9978C62.7556 24.1915 63.5306 24.7081 63.5306 25.849C63.5306 27.5926 61.8085 27.98 60.4739 27.98H57.4603L57.4388 20.3384ZM60.1079 23.5242C60.8398 23.5242 61.5932 23.3735 61.5932 22.491C61.5932 21.6945 60.9044 21.4793 60.2156 21.4793H59.0532V23.5242H60.1079ZM60.2586 26.8392C61.0336 26.8392 61.787 26.667 61.787 25.7198C61.787 24.7727 61.1412 24.6005 60.3447 24.6005H59.0317V26.8392H60.2586Z" fill="white"/>
<path d="M67.8357 28.1307C65.3603 28.1307 64.2624 26.5594 64.2624 24.213C64.2624 21.8667 65.4894 20.1662 67.9218 20.1662C69.4502 20.1662 70.9354 20.855 70.9785 22.5771H69.2564C69.1703 21.8022 68.6537 21.4147 67.9218 21.4147C66.415 21.4147 65.963 23.0291 65.963 24.2561C65.963 25.4831 66.415 26.9038 67.8572 26.9038C68.6106 26.9038 69.1703 26.4948 69.2779 25.7199H71C70.8278 27.485 69.4286 28.1307 67.8357 28.1307Z" fill="white"/>
</svg>
