<svg width="82" height="33" viewBox="0 0 82 33" fill="none" xmlns="http://www.w3.org/2000/svg">
<path d="M10.5793 20.9831C10.5458 20.5133 10.4114 20.0434 10.1427 19.6361L7.85894 15.9084C7.69102 15.6265 7.55668 15.3133 7.4895 15L7.38875 15.1566C6.8178 16.0651 6.8178 17.2241 7.38875 18.1325L9.23594 21.1084C9.80689 22.0169 9.80689 23.1759 9.23594 24.0843L9.13518 24.241C9.06801 23.9277 8.93367 23.6145 8.76574 23.3325L7.08648 20.6072L6.01175 18.853C5.84383 18.5711 5.70949 18.2578 5.64232 17.9446L5.54156 18.1012C4.97061 19.0096 4.97061 20.1373 5.54156 21.0771L7.38875 24.053C7.9597 24.9614 7.9597 26.1205 7.38875 27.0289L7.28799 27.1855C7.22082 26.8723 7.08648 26.559 6.91856 26.2771L4.60118 22.5494C4.29891 22.0482 4.16457 21.4843 4.16457 20.9205C1.71285 21.5157 0 22.8 0 24.2723C0 26.3398 3.29135 28 7.35516 28C11.419 28 14.7103 26.3398 14.7103 24.2723C14.7439 22.8627 13.0647 21.5783 10.5793 20.9831ZM17.5315 27.3422C17.5651 26.8096 17.6322 26.4651 17.8002 26.0265C18.5726 26.3711 19.5802 26.5277 20.3191 26.5277C21.5953 26.5277 22.3342 26.1518 22.3342 25.3687C22.3342 24.6169 21.7968 24.2723 20.5206 23.7398L19.8153 23.4892C18.5055 22.9566 17.6322 22.2675 17.6322 20.9205C17.6322 19.4482 18.7406 18.5084 20.9572 18.5084C21.864 18.5084 22.7036 18.6337 23.4761 18.8843C23.4425 19.3855 23.3417 19.7928 23.2074 20.1687C22.4685 19.9181 21.5617 19.7928 20.9236 19.7928C19.7145 19.7928 19.1772 20.2313 19.1772 20.9205C19.1772 21.5783 19.7145 21.9855 20.6885 22.3614L21.4274 22.6434C23.1738 23.3325 23.9127 24.0843 23.9127 25.3373C23.9127 26.8096 22.7036 27.8434 20.3526 27.8434C19.2443 27.8434 18.3039 27.6867 17.5315 27.3422ZM31.335 21.1711V27.6241H29.9244L29.8573 26.841C29.4542 27.4048 28.8833 27.7807 27.9093 27.7807C26.0957 27.7807 24.8531 26.5277 24.8531 24.3663C24.8531 22.1108 26.1629 20.7952 28.7154 20.7952C29.7229 20.8265 30.5626 20.9205 31.335 21.1711ZM29.8237 26.1518V22.1108C29.5214 22.0482 29.152 22.0482 28.7154 22.0482C27.1369 22.0482 26.398 22.9566 26.398 24.3976C26.398 25.7133 26.9689 26.653 28.3123 26.653C28.9505 26.6217 29.4207 26.4337 29.8237 26.1518ZM39.1268 23.3012V27.6241H37.6155V23.5518C37.6155 22.5181 37.246 22.0482 35.7347 22.0482C35.3652 22.0482 34.9622 22.0795 34.5256 22.1422V27.6241H33.0143V21.1711C33.9882 20.9518 35.063 20.7952 35.7683 20.7952C38.3207 20.8265 39.1268 21.7349 39.1268 23.3012ZM43.3585 26.5904C43.7951 26.5904 44.2317 26.5277 44.534 26.4024C44.5004 26.7783 44.4333 27.2169 44.3661 27.5928C43.9631 27.7494 43.4929 27.812 43.0898 27.812C41.6121 27.812 40.6717 27.1855 40.6717 25.6193V18.8217C41.1419 18.6651 41.7128 18.6024 42.183 18.6024V21.0458H44.6012C44.5676 21.4843 44.534 21.8916 44.4668 22.2675H42.183V25.4313C42.183 26.2458 42.6196 26.5904 43.3585 26.5904ZM51.5197 21.1711V27.6241H50.1092L50.042 26.841C49.639 27.4048 49.068 27.7807 48.094 27.7807C46.2804 27.7807 45.0378 26.5277 45.0378 24.3663C45.0378 22.1108 46.3476 20.7952 48.9001 20.7952C49.9076 20.8265 50.7137 20.9205 51.5197 21.1711ZM49.9748 26.1518V22.1108C49.6725 22.0482 49.3031 22.0482 48.8665 22.0482C47.288 22.0482 46.5491 22.9566 46.5491 24.3976C46.5491 25.7133 47.1201 26.653 48.4635 26.653C49.1016 26.6217 49.6054 26.4337 49.9748 26.1518ZM59.3115 23.3012V27.6241H57.7666V23.5518C57.7666 22.5181 57.3971 22.0482 55.8858 22.0482C55.5164 22.0482 55.1134 22.0795 54.6767 22.1422V27.6241H53.1654V21.1711C54.1394 20.9518 55.2141 20.7952 55.9194 20.7952C58.4719 20.8265 59.3115 21.7349 59.3115 23.3012ZM67.0025 18.6024V27.6241H65.5919L65.5248 26.8096C65.1217 27.4048 64.5508 27.7807 63.5432 27.7807C61.7296 27.7807 60.487 26.5277 60.487 24.3663C60.487 22.1108 61.7968 20.7952 64.3493 20.7952C64.7523 20.7952 65.1218 20.8265 65.4912 20.8892V18.759C65.9614 18.6337 66.4987 18.6024 67.0025 18.6024ZM65.4912 26.1518V22.1735C65.0882 22.1108 64.6851 22.0482 64.2821 22.0482C62.7708 22.0482 62.0655 22.9253 62.0655 24.3976C62.0655 25.7133 62.6364 26.653 63.9799 26.653C64.5844 26.6217 65.0882 26.4337 65.4912 26.1518ZM74.66 24.8675H69.7901C69.9916 26.0265 70.6969 26.559 72.0739 26.559C72.9135 26.559 73.7532 26.4024 74.492 26.0578C74.4249 26.4337 74.3577 26.9349 74.2569 27.3422C73.5516 27.6241 72.8463 27.7494 72.0067 27.7494C69.4542 27.7494 68.2452 26.4337 68.2452 24.241C68.2452 22.3301 69.1856 20.7952 71.6037 20.7952C73.7867 20.7952 74.7271 22.1108 74.7271 23.7398C74.7271 24.1783 74.7271 24.4916 74.66 24.8675ZM69.7901 23.6771H73.2158C73.2158 22.612 72.6113 21.9855 71.5701 21.9855C70.4618 22.0169 69.8908 22.5807 69.7901 23.6771ZM80 20.8892C80 21.3277 79.9328 21.8289 79.8657 22.1108C79.4962 22.0795 79.1604 22.0482 78.7238 22.0482C78.3543 22.0482 77.9849 22.0795 77.6155 22.1108V27.6241H76.1041V21.1711C76.7422 20.9518 77.8505 20.7952 78.6902 20.7952C79.1268 20.8265 79.6641 20.8265 80 20.8892Z" fill="white"/>
</svg>
