<svg id="LOGO_LEVER" xmlns="http://www.w3.org/2000/svg" width="226" height="52.596" viewBox="0 0 226 52.596">
  <path id="Trazado_1" data-name="Trazado 1" d="M15.81,51.682a16.181,16.181,0,0,1-8.352-2.1,14.937,14.937,0,0,1-5.506-5.578A15.614,15.614,0,0,1,0,36.252V0H11.259V37.167a5.2,5.2,0,0,0,1.5,3.75,4.918,4.918,0,0,0,3.657,1.561H31.435v9.215H15.81Z" fill="#2adc9f"/>
  <path id="Trazado_2" data-name="Trazado 2" d="M36.33,51.682V14.454A14.468,14.468,0,0,1,50.784,0H73.168L76.26,9.215H51.811a6.261,6.261,0,0,0-6.256,6.256v5.763H72.511v9.1H45.545V42.478H76.25v9.215H36.33Z" transform="translate(0.991 0)" fill="#2adc9f"/>
  <path id="Trazado_3" data-name="Trazado 3" d="M146.434,51.682A14.468,14.468,0,0,1,131.98,37.228V9.554L135.185,0H171.9V9.215H141.195V21.357H167.4v9.1H141.195v5.763a6.261,6.261,0,0,0,6.256,6.256H171.9v9.215H146.434Z" transform="translate(3.599)" fill="#2adc9f"/>
  <path id="Trazado_4" data-name="Trazado 4" d="M104.5,52.6a12.015,12.015,0,0,1-6.338-1.674,9.339,9.339,0,0,1-3.9-4.828L78.43,0H90.572l12.153,40.649a2.308,2.308,0,0,0,.647,1.038,1.7,1.7,0,0,0,1.13.411,1.716,1.716,0,0,0,1.058-.38,1.755,1.755,0,0,0,.657-1.109L118.658,0H130.5L114.734,45.96a9,9,0,0,1-3.863,4.921A11.9,11.9,0,0,1,104.5,52.6Z" transform="translate(2.139)" fill="#2adc9f"/>
  <path id="Trazado_5" data-name="Trazado 5" d="M214.569,51.682a11.592,11.592,0,0,1-10-5.558l-5.907-10.468H187.829V51.692H176.57V0h23.566a19.769,19.769,0,0,1,9.451,2.27,18.053,18.053,0,0,1,6.79,6.277,17.076,17.076,0,0,1,2.537,9.328,17.114,17.114,0,0,1-2.291,8.742,17.492,17.492,0,0,1-6.164,6.266l-.637.38,4.654,7.889.021.031a3.591,3.591,0,0,0,1.089,1.038,3.229,3.229,0,0,0,1.726.411h3.873v9.061h-6.616ZM187.829,26.6h10.858a10.043,10.043,0,0,0,4.469-.986,7.709,7.709,0,0,0,3.277-3.061,9.048,9.048,0,0,0,1.2-4.674,8.589,8.589,0,0,0-1.253-4.695,8.082,8.082,0,0,0-3.308-2.969,9.859,9.859,0,0,0-4.4-.986H187.819V26.6Z" transform="translate(4.816)" fill="#2adc9f"/>
</svg>
