<?xml version="1.0" encoding="UTF-8"?>
<svg id="Capa_1" data-name="Capa 1" xmlns="http://www.w3.org/2000/svg" viewBox="0 0 347 302">
  <defs>
    <style>
      .cls-1 {
        fill: #0e152c;
      }

      .cls-1, .cls-2 {
        stroke-width: 0px;
      }

      .cls-2 {
        fill: #e5e5e5;
        isolation: isolate;
        opacity: .59;
      }
    </style>
  </defs>
  <g id="Grupo_2545" data-name="Grupo 2545">
    <rect id="Rectángulo_742" data-name="Rectángulo 742" class="cls-2" x="0" width="347" height="302" rx="42" ry="42"/>
  </g>
  <g>
    <path class="cls-1" d="M89.78,132.2c-2.23-2.91-5-5.28-8.22-7.06-1.94-1.08-3.82-.9-5.15.63-1.68,1.94-.96,4.46,1.61,6,4.09,2.44,7.01,5.83,8.89,10.27,1.15,2.72,1.29,5.55,1.45,8.32.11,1.89-.43,3.94-1.13,5.89-1.37,3.84-3.62,6.97-6.72,9.54-2.39,1.98-5.15,3.44-8.14,3.99-2.23.41-4.51.87-6.95.32-2.34-.52-4.66-.91-6.81-2.03-8.87-4.62-13.09-13.73-10.64-23.76,1.08-4.43,3.52-8.11,7.19-10.95,1.18-.92,2.53-1.57,3.66-2.54,1.37-1.16,1.52-3.03.43-4.84-.83-1.38-2.51-1.94-4.09-1.33-1.35.52-2.55,1.3-3.72,2.15-2.61,1.87-4.93,4.03-6.66,6.75-1.5,2.36-2.83,4.78-3.66,7.52-.6,1.98-1.14,3.94-1.23,5.99-.19,4.09-.06,8.14,1.48,12.04,1.21,3.06,2.65,5.95,4.79,8.47,2.16,2.53,4.61,4.7,7.5,6.37,2.23,1.29,4.6,2.28,7.05,2.95,2.26.61,4.62.89,6.72.6,3.17.14,5.95-.25,8.77-1.09,4.56-1.36,8.38-3.82,11.65-7.14,2.08-2.11,3.82-4.52,5.1-7.23,1.19-2.51,2.27-5.11,2.51-7.84.33-3.61.55-7.27-.35-10.88-1.02-4.08-2.81-7.79-5.35-11.09Z"/>
    <path class="cls-1" d="M247.24,176.49c.27-.47.17-.98.17-1.46,0-15.46,0-30.92.01-46.38,0-.25-.02-.5,0-.74.04-.74-.33-1.06-1.04-1.07-.91,0-1.82-.01-2.73-.02q-1.78,0-1.78,1.77c0,11.08,0,22.16,0,33.24,0,.33,0,.66-.03.99-.05.58-.31.75-.79.35-.25-.21-.49-.44-.72-.68-4.28-4.52-8.55-9.05-12.85-13.55-3.39-3.55-6.83-7.04-10.22-10.59-3.99-4.18-7.94-8.39-11.91-12.58-.17-.18-.31-.43-.6-.35-.36.1-.32.44-.34.72-.02.25,0,.5,0,.74,0,11.91,0,23.81,0,35.72,0,3.68.02,7.36,0,11.04,0,.95.3,1.37,1.29,1.3.9-.07,1.82-.06,2.73,0,1.17.07,1.58-.38,1.57-1.59-.06-5.37-.02-10.75-.02-16.12,0-5.75,0-11.49,0-17.24,0-.43-.16-1.01.37-1.21.48-.18.67.39.93.66,2.61,2.7,5.2,5.41,7.8,8.13,6.62,6.91,13.23,13.83,19.85,20.75,2.37,2.47,4.74,4.94,7.1,7.42.34.36.68.7,1.22.77Z"/>
    <path class="cls-1" d="M170.02,150.02c-1.47-.58-1.48-.8-.44-1.88.97-1.01,1.82-2.1,2.41-3.4,1.13-2.5.8-5.11.63-7.69-.14-2.15-1.07-4.04-2.59-5.61-2.72-2.82-6.24-3.94-9.97-4.44-3.28-.45-6.61-.06-9.91-.21-1.26-.06-1.62.37-1.61,1.62.05,7.44.03,14.88.03,22.32,0,7.56.01,15.12-.02,22.69,0,1.08.25,1.55,1.46,1.53,4.13-.07,8.27,0,12.4-.04,2.71-.03,5.36-.5,7.76-1.81,4.44-2.43,6.83-6.22,7-11.3.1-3-.57-5.81-2.49-8.22-1.25-1.58-2.76-2.8-4.67-3.54ZM155.43,131.79c2.34.14,4.69-.22,7.01.52,2.51.81,4.35,2.27,4.92,4.88.7,3.21.62,6.35-2.03,8.83-1.43,1.34-3.24,1.8-5.11,1.94-1.64.13-3.31.02-4.96.06-.86.02-1.18-.35-1.17-1.19.03-2.31,0-4.63,0-6.94,0-2.23.03-4.46-.02-6.7-.02-.98.27-1.47,1.33-1.41ZM168.9,168c-1.45.99-3.08,1.6-4.79,1.87-2.82.44-5.67.5-8.52.47-1.06-.01-1.5-.41-1.48-1.46.03-2.44,0-4.88,0-7.31h0c0-2.4.03-4.79-.01-7.19-.02-1,.32-1.42,1.36-1.38,3.25.14,6.54-.34,9.72.71,2.25.74,4.53,1.45,5.62,3.85,1.4,3.08,1.12,8.39-1.89,10.45Z"/>
    <path class="cls-1" d="M134.85,126.81c-.82.04-1.66.07-2.48,0-1.15-.11-1.5.33-1.48,1.48.05,5.33.02,10.66.02,17.07-.08,4.42.21,9.92-.13,15.41-.18,2.79-1.2,5.33-3.49,7.13-4.01,3.15-8.49,3.77-13.17,1.88-3.83-1.54-6.21-4.36-6.52-8.67-.22-3.06-.1-6.11-.11-9.17-.03-7.81-.03-15.63.01-23.44,0-1.19-.29-1.8-1.59-1.69-.82.07-1.66.08-2.48,0-1.23-.12-1.53.4-1.53,1.56.04,10.25.01,20.5.03,30.75,0,2.67.51,5.28,1.72,7.66,2.74,5.35,7.48,7.82,13.18,8.7,3.92.6,7.68-.22,11.12-2.1,3.5-1.91,6.18-4.62,7.38-8.59.7-2.28.88-4.61.88-6.97,0-6.2,0-12.4,0-18.6,0-3.68-.02-7.36.02-11.04.01-1.03-.38-1.43-1.39-1.38Z"/>
    <path class="cls-1" d="M186.75,150.84c0,1.49,0,2.98,0,4.46,0,5.99,0,11.98,0,17.98,0,1.62,0,1.62,1.66,1.62.7,0,1.41,0,2.11,0,1.74-.01,1.78-.06,1.79-1.83,0-14.38,0-28.76,0-43.14,0-.62-.04-1.24,0-1.86.06-.92-.38-1.27-1.25-1.26-.91.02-1.83.08-2.73-.02-1.27-.13-1.62.36-1.61,1.61.05,7.48.03,14.96.03,22.44Z"/>
    <path class="cls-1" d="M307.18,150.85c0-13.17-11.5-25.6-25.3-25.02-13.49-.87-25.5,11.99-25.64,24.73-.16,13.51,12.14,25.84,25.98,25.49,13.51-.34,24.97-11.76,24.97-25.2ZM262.94,157.52c.07.21.15.42.24.63.34.83.8,1.62,1.42,2.33.17-.47.02-.86-.21-1.28-.75-1.41-1.41-2.91-1.61-4.47-.48-3.74-.33-7.47,1.13-11.04,1.91-4.65,5.15-8.03,9.59-10.38.91-.48,2.23-.26,2.73-1.47.16-.02.31-.04.47-.06.58.36,1.25.31,1.8.13,2.29-.75,4.53-.38,6.82,0,3.44.57,6.38,2.07,8.96,4.34.33.29.61.7,1.16.57,0,0,.04.05.04.05.26.09.46.23.59.45-.13-.22-.33-.37-.59-.45-.06.52.18.75.7.7l.05.05c.26.12.48.27.59.52-.11-.25-.33-.4-.59-.52-.11.54.16.76.66.8.05.04.07.09.08.15.54.46,1.01.97,1.39,1.53-.39-.56-.85-1.07-1.39-1.53.24,1.29,1.22,2.2,1.71,3.36.22.53.42,1.09,1.06,1.28.04.15.07.31.11.46-.4.81.1,1.3.64,1.77.04.24.07.48.11.71-.37.97-.44,1.87.57,2.54.15,1.38.12,2.76.02,4.14-.91.78-.9,1.75-.58,2.78-.05.32-.09.64-.14.96-.39.18-.7.46-.8.89-.42,1.95-1.58,3.51-2.63,5.13-.31.49-1.03.79-.8,1.56l-.04.06c-.04.3-.18.49-.41.61.23-.12.37-.31.41-.61-.52-.05-.76.17-.66.7l-.07.08c-1.16,1.4-2.53,2.48-4.04,3.34,1.51-.86,2.87-1.94,4.04-3.34-.48-.15-.79.16-1.09.44-1.47,1.35-3.12,2.42-4.96,3.2-4.63,1.98-9.3,2.18-14.07.52-4.1-1.43-7.19-4.08-9.59-7.62-.27-.4-.48-.9-1.1-.87-.04-.06-.07-.12-.06-.19-.62-.7-1.07-1.49-1.42-2.33-.09-.21-.16-.42-.24-.63Z"/>
    <path class="cls-1" d="M84.97,146.66c-.49-1.57-.99-3.13-1.8-4.6-4.71-8.59-15-11.5-23.39-7.34-6.9,3.42-11.43,11.99-9.07,20.26,1.43,5.03,4.36,8.7,8.87,11.2.66.37,1.32.45,2.01.09.92-.47,1.65-1.06,1.71-2.23.06-1.24-.36-2.15-1.43-2.8-3.02-1.84-5.09-4.37-5.96-7.87-.28-1.12.11-1.37,1.01-1.38,1.24-.02,2.48.05,3.71.03,6.03-.11,12.07-.08,18.1.01.75.01,1.2.36.91,1.2-.27.78-.52,1.57-.85,2.32-1.1,2.51-3,4.31-5.28,5.74-1.36.85-1.85,2.52-1.11,3.76.83,1.38,2.22,1.75,3.72.97,3.34-1.75,5.82-4.39,7.43-7.73.89-1.85,1.92-3.78,1.47-6.01,0-1.1,0-2.2.01-3.3.22-.78.18-1.56-.06-2.32ZM70.2,147.48c-.87,0-1.74,0-2.6,0-3.43,0-6.86.01-10.29,0-1.43,0-1.74-.43-1.17-1.73,2.62-5.96,9-9.21,15.54-7.07,3.42,1.12,5.77,3.41,7.38,6.54.15.29.2.63.33.93.42,1.02-.04,1.35-1.01,1.34-2.73-.02-5.45,0-8.18,0Z"/>
  </g>
</svg>