<?xml version="1.0" encoding="UTF-8"?>
<svg id="Capa_1" data-name="Capa 1" xmlns="http://www.w3.org/2000/svg" viewBox="0 0 347 302">
  <defs>
    <style>
      .cls-1 {
        fill: #0e152c;
      }

      .cls-1, .cls-2 {
        stroke-width: 0px;
      }

      .cls-2 {
        fill: #e5e5e5;
        isolation: isolate;
        opacity: .59;
      }
    </style>
  </defs>
  <g id="Grupo_2545" data-name="Grupo 2545">
    <rect id="Rectángulo_742" data-name="Rectángulo 742" class="cls-2" width="347" height="302" rx="42" ry="42"/>
  </g>
  <g>
    <path class="cls-1" d="M109.22,163.6c-1.08-.09-1.71,0-2.15,1.32-.59,1.75-.17,3.61-.75,5.22-3.15,8.81-8.5,15.23-18.51,16.41-6.83.81-13.16-.54-19.11-3.92-1.31-.74-1.32-1.2.09-1.7,4.86,0,9.71.01,14.57-.01.72,0,1.71.3,1.8-.95.08-.98-.61-.99-1.34-1.12-2.75-.49-3.9-2.24-4.18-4.96-.42-4.16-.04-8.31-.27-12.46-.1-1.92.66-2.36,2.45-2.2,3.47.32,6.95.11,10.26-1.08,6.92-2.51,10.35-9.75,7.16-15.33-2.18-3.81-5.68-6.11-9.86-7.33-3.34-.97-6.61-2.13-9.6-3.9-2.22-1.32-3.95-3.27-3.38-6.07.57-2.82,2.72-4.29,5.45-4.79,4.27-.77,7.8.49,10.46,4.03,1.27,1.68,2.12,3.57,2.87,5.51.35.91.96,1.24,1.84,1.06.96-.2.78-1.03.76-1.68-.09-2.97-.28-5.93-.33-8.89-.03-1.67-1.18-2.13-2.01-1.23-1.48,1.6-2.76.85-4.28.44-2.09-.57-4.21-1.2-6.36-1.42-8.03-.84-19.22,5.32-14.53,16.31-.51.05-1,.07-1.47.16-.87.16-2.25-.57-2.41.94-.16,1.51,1.34,1.15,2.17,1.4,2.21.66,3.3,2.22,3.41,4.36.14,2.81.04,5.63.04,8.44-.91-.88-1.44-1.88-1.88-2.91-.33-.78-.68-1.45-1.67-1.37-1.21.1-.96,1.03-.98,1.79-.06,2.77-.06,5.54-.18,8.31-.11,2.53.69,3.15,2.86,1.62,1.72-1.21,1.94-.14,1.92,1.33-.03,3.27-.16,6.55.04,9.8.31,5.05.24,9.75-6.19,10.94-.93-.54-1.77-1.07-2.36-2.12-5.1-9.03-8.3-18.62-8.03-29.07.17-6.59.81-13.11,3.29-19.43,2.81-7.14,6.33-13.58,12.6-18.27,6.85-5.13,19.79-4.13,24.78,2.37,2.86,3.72,5.65,7.62,6.91,12.34.73,2.75,1.86,5.39,2.77,8.09.39,1.16,1.19,1.5,2.29,1.37,1.12-.13,1.44-.86,1.43-1.88-.08-8.82-.16-17.64-.23-26.46,0-1.17-.72-1.46-1.7-1.64-.87-.16-1.87-.68-2.28.51-1.15,3.29-3.34,2.27-5.55,1.49-7.75-2.73-15.54-5.01-23.95-3.58-14.59,2.47-25.61,9.61-31.51,23.58-5.11,12.09-5.76,24.5-2.57,37.2,3.65,14.5,16.63,29.35,36.07,27.71,3.45-.29,6.94-.03,10.41-.02,1.19,0,2.33-.15,3.5-.5,5.18-1.56,9.24-4.48,12.78-8.63,4.32-5.07,5.39-11.06,6.3-17.23.18-1.25-.45-1.8-1.67-1.9ZM85.35,142.72c4.85,2.18,6.03,4.36,4.66,8.64-1.27,3.98-5.11,6.16-9.34,5.52-1.35-.2-1.25-.98-1.26-1.86-.01-2.17,0-4.34,0-6.51,0-.69,0-1.38,0-2.07q0-6.37,5.95-3.7Z"/>
    <path class="cls-1" d="M253.31,154.7c-1.03-3.35.63-6.58.19-9.87-.08-.62.43-1.61-.52-1.73-1.1-.14-1.03.95-1.14,1.68-.37,2.54-.84,5.05-2.54,7.12-.62-.19-.98-.56-1.06-1.25-.91-7.91-.27-15.59,4.01-22.52,4.58-7.42,11.97-7.15,15.98-.14,1.56,2.72,2.17,5.72,3.22,8.58.27.74.49,1.59,1.59,1.36.75-.15.89-.79.81-1.38-.61-4.63-.29-9.29-.53-13.93-.06-1.17-.73-2.25-1.79-1.06-1.45,1.63-2.68.68-3.93.12-2.82-1.26-5.89-1.95-8.79-1.59-8.93,1.12-15.55,7.32-17.71,16.05-1.26,5.11-1.2,10.35-1.21,15.56-1.83-.74-1.53-2.51-1.55-3.83-.14-8.61-.16-17.22-.11-25.83.01-2.24.46-4.42,3.24-4.97.59-.12.85-.57.64-1.09-.12-.29-.55-.64-.84-.65-3.76-.05-7.53-.04-11.29-.05-.56,0-.96.26-1.05.82-.1.6.28.87.83.99,1.96.41,2.85,1.82,2.94,3.62.51,9.99.5,19.98,0,29.97-.07,1.41-.77,2.5-1.97,3.12-1.14.59-2.22.98-2.09-1.21.18-3.15.05-6.32.05-9.48-.27-.02-.55-.04-.82-.06-.54,2.02-.92,4.1-1.65,6.05-1.44,3.86-4.32,5.47-8.12,4.79-2.83-.51-4.39-2.67-4.43-6.8-.09-8.42-.07-16.83,0-25.25.01-2.15.48-4.21,3.1-4.72.55-.11.92-.3.9-.92-.03-.81-.59-.92-1.23-.92-3.57,0-7.13,0-10.7.02-.58,0-1.25-.06-1.39.75-.13.78.41.95,1.04,1.13,2.03.58,2.76,2.19,2.82,4.07.29,9.5.28,19,.01,28.5-.06,1.96-.6,3.74-2.84,4.36-.59.16-1.17.45-1.02,1.2.17.79.88.65,1.44.65,7.52-.04,15.05-.1,22.57-.15.33.42.46.21.55-.16,3.99.76,8.02.07,12.02.39,2.96-.02,5.91-.04,8.87-.06,2.9.01,3.81-.3,3.51-1.28Z"/>
    <path class="cls-1" d="M160.69,135.06c-3.15-.22-6.33-.04-9.5-.04v-.16c-3.37,0-6.73-.02-10.1.01-.63,0-1.52-.21-1.54.87-.02.79.56.9,1.21.95,3.08.22,4.33,2.15,4.35,4.97.06,8.8.13,17.61-.02,26.41-.04,2.51-1.07,4.77-4.14,5.16-.68.09-1.5.27-1.35,1.21.15.92,1,.78,1.67.79,4.95,0,9.9.02,14.85,0,.66,0,1.55.18,1.73-.72.22-1.14-.78-1.22-1.54-1.33-2.61-.37-3.78-2-3.86-4.47-.13-3.75-.13-7.51-.24-11.27-.04-1.36.62-1.65,1.82-1.63,2.47.04,4.96.09,7.42-.07,4.71-.31,7.79-2.79,8.91-6.94,1.8-6.68-2.75-13.25-9.68-13.74ZM162.37,149.55c-1.31,3.16-4.62,4.75-8.61,4.35-1.43-.14-1.56-.84-1.54-1.94.03-2.28,0-4.55,0-6.83,0-1.19-.14-2.4.04-3.56.24-1.56-1.06-3.88.78-4.54,2.19-.78,4.75-.35,6.82,1.09,2.93,2.04,4.1,7.56,2.51,11.43Z"/>
    <path class="cls-1" d="M135.91,135.38c-2.49-1.21-5.01-2.38-7.35-3.84-2.43-1.52-3.74-3.78-3.18-6.81.45-2.43,1.95-3.88,4.32-4.31,2.99-.55,5.11.87,6.76,3.26,1.27,1.83,1.91,3.89,2.49,6,.16.58.42,1.17,1.19,1.05.8-.12.75-.78.75-1.37,0-1.49,0-2.97,0-4.46-.01,0-.03,0-.04,0-.07-1.58-.15-3.16-.22-4.74-.04-.82-.65-1.64-1.21-.95-1.45,1.8-2.81.73-4.2.21-6.28-2.31-11.69-.37-14.29,5.18-2.64,5.62-.68,10.65,5.43,14.05,2.33,1.3,4.75,2.49,6.93,4.01,2.73,1.91,3.35,4.83,2.77,7.94-.51,2.68-2.23,4.32-4.99,4.83-3.54.65-7.01-1.42-8.89-5.48-.66-1.43-1.08-2.97-1.65-4.44-.18-.47-.5-.87-1.09-.85-.63.02-.8.43-.81.99-.04,3.27-.09,6.54-.13,9.8-.01.78.7,1.27,1.11.9,2.32-2.07,4.23-.06,6.25.5,4.49,1.25,9.21,1.3,12.64-1.7,7.32-6.41,4.99-16.08-2.59-19.75Z"/>
    <path class="cls-1" d="M307.17,153.14c-.09-1.13-.81-1.89-1.82-2.09-1.57-.32-3.15-.24-4.63.56-.75.41-1.14,1.03-2.29-.12-1.46-1.44-4-.39-5.49.48-1.07.63,1.26,1.31,1.51,2.29.31,1.24.64,2.5.7,3.77.11,2.17.35,4.43-.08,6.52-.33,1.63,1.48,5.65-3.22,3.98-.17-.06-.46.39-.73.45-1.43.34-2.28-.09-2.25-1.72.03-1.78,0-3.57,0-5.35h.02c0-1.19,0-2.38,0-3.57,0-5.49-4.21-8.58-9.64-7.26-2.2.53-2.34,2.39-3.03,3.89-.21.45.11,1.2.86,1.32.59.1,1.2.14,1.56-.5.34-.6.72-1.18.99-1.81.48-1.12,1.19-1.87,2.49-1.56,1.25.29,2.04,1.11,2.32,2.4.72,3.34-.15,4.94-3.4,6.07-.93.33-1.92.52-2.84.87-2.55.96-3.94,3.31-3.52,5.85.43,2.65,2.35,4.43,5.32,4.05,3.13-.41,6.17-1.99,9.26.06.07.04.2.02.29-.01,2.82-.85,5.71-.28,8.57-.47,1.15-.08,2.77.59,3.35-.4.82-1.37-1.31-1.34-1.75-2.25-.09-.18-.17-.37-.18-.56-.25-4.25-.71-8.53.32-12.71.61-2.46,1.91-2.73,3.59-.9.87.94,1.72.86,2.65.61.89-.23,1.13-1.04,1.06-1.9ZM284.03,167.52c-.55,1.52-1.58,2.64-2.98,2.19-1.7-.55-2-2.22-1.47-3.97.68-2.22,2.83-2.92,4.72-4.98.18,2.76.47,4.73-.27,6.77Z"/>
    <path class="cls-1" d="M202.85,140.92c-1.79-2.36-4.49-3.46-7.28-4.55-6.79-2.66-12.93-1.45-18.58,2.59-5.25,3.75-5.1,10.46,0,14.35,3.44,2.63,7.33,3.77,11.9,3.57,5.05-.02,8.98-1.31,12.12-4.07,3.84-3.38,4.7-8.14,1.85-11.89ZM188.7,155.91c-5.77-.01-9.65-3.94-9.63-9.72.03-6.1,3.98-10.26,9.67-10.39,5.85-.14,9.93,5.01,9.97,10.44.04,5.83-3.95,9.68-10.01,9.67Z"/>
    <path class="cls-1" d="M273.32,155.2c-.57-.1-.94.36-1.12.78-.22.53-.21,1.15-.35,1.72-1.82,7.39-4.17,9.26-11.78,9.98-4.75.45-11.03-5.97-10.28-11.71-2.95.02-5.91.04-8.87.06.34.8.71,1.59,1.03,2.4,3.62,9.22,10.14,13.52,19.39,12.77,7.35-.6,13.21-7.6,12.46-14.86-.05-.48.19-1.02-.49-1.14Z"/>
    <path class="cls-1" d="M268.53,135.47h-12.94c3.5.65,4.11,2.91,3.96,5.83-.11,2.17,0,4.35-.02,6.52-.03,3.13.95,6.8-3.83,7.51h12.72c-3.63-.33-3.86-2.68-3.74-5.46.12-2.76.06-5.53.02-8.3-.04-2.82-.55-5.91,3.82-6.11Z"/>
  </g>
</svg>