<?xml version="1.0" encoding="UTF-8"?>
<svg id="Capa_1" data-name="Capa 1" xmlns="http://www.w3.org/2000/svg" viewBox="0 0 347 302">
  <defs>
    <style>
      .cls-1 {
        fill: #e5e5e5;
        isolation: isolate;
        opacity: .59;
      }

      .cls-1, .cls-2 {
        stroke-width: 0px;
      }

      .cls-2 {
        fill: #0e152c;
        fill-rule: evenodd;
      }
    </style>
  </defs>
  <g id="Grupo_2545" data-name="Grupo 2545">
    <rect id="Rectángulo_742" data-name="Rectángulo 742" class="cls-1" width="347" height="302" rx="42" ry="42"/>
  </g>
  <g>
    <path class="cls-2" d="M269.07,166.32c-.32-4.33,1.32-10.93-4.84-12.83-1.07-.33-1.06-.05-1.78-.71.67-1.25,1.04-.32,3.08-2.23,1.12-1.05,1.54-1.56,2.29-3.02,3.24-6.25,2.75-18.17-7.05-21.59-5.75-2.01-22.76-1.29-30.47-1.29-2.46,0-8.68-.3-10.69.11l-.03,10.79,4.09.21v30.58s-3.85.03-3.85.03c-.63,1.6-.24,8.87-.24,11.12h27.62v-11.13s-4.43-.02-4.43-.02l-.06-10.99c1.87-.42,5.01.18,6.28,1.1,1.5,1.08,1.7,3.47,1.7,5.83,0,5.07,0,10.14,0,15.21h21.53s0-11.09,0-11.09l-3.15-.07ZM242.71,146.79v-10.95c5.5-.93,7.59.3,7.59,4.92,0,5.17-.52,6.77-7.59,6.04Z"/>
    <path class="cls-2" d="M214.14,166.29c-1.02-2.24-2.1-7.41-2.9-10.17-2.88-9.99-5.6-22.08-8.72-31.5l-24.68-.04-11.55,41.72-2.74.02v11.05s23.29.05,23.29.05v-11.13s-3.92,0-3.92,0c0-1.16.27-2.06.49-3.17.36-1.8,0-2.18,1.59-2.25,1.87-.08,6.23-.12,7.97.11l1.17,5.25-4.07.08v11.11s26.72,0,26.72,0v-11.13s-2.66,0-2.66,0ZM185.4,153.68c.46-3.23,1.54-7.34,2.16-10.75.58-3.26.39-2.52,1.24-2.78l2.7,13.52h-6.09Z"/>
    <path class="cls-2" d="M144.48,166.29v-9.75c8.62-.12,17.03.64,21.82-4.74,4.17-4.68,5.06-14.45,1.41-20.55-3.81-6.35-10.49-6.67-19.78-6.67s-17.66,0-26.49,0l-.12,11.08,4.12.04v30.51s-4.12.1-4.12.1v11.11s29.72,0,29.72,0c0-2.19.32-9.57-.2-11.13h-6.37ZM144.48,135.67c5.15-.04,6.22.28,6.22,5.58s-1.13,5.66-6.23,5.57v-11.15Z"/>
    <path class="cls-2" d="M73.6,166.29l-5.99-.02-.06-30.51,6.26-.13v-11.02s-29.35-.03-29.35-.03l-.04,10.9,4.08.21v30.61s-4.07,0-4.07,0c-.02,2.21-.36,9.52.21,11.13h42.46s.11-17.29.11-17.29l-13.47-.04-.14,6.2Z"/>
    <polygon class="cls-2" points="275.44 166.3 275.43 177.42 302.68 177.42 302.68 166.3 298.63 166.29 298.56 135.73 302.68 135.65 302.67 124.58 275.48 124.59 275.43 135.52 279.52 135.69 279.51 166.28 275.44 166.3"/>
    <path class="cls-2" d="M113.73,166.3v-30.63s4.13-.05,4.13-.05l-.02-10.91-27.1-.12-.11,11.09h4.04s0,30.63,0,30.63h-3.86c-.45,1.55-.18,8.95-.18,11.12h27.2c0-2.24.39-9.53-.24-11.12h-3.88Z"/>
  </g>
</svg>