<svg width="381" height="348" viewBox="0 0 381 348" fill="none" xmlns="http://www.w3.org/2000/svg">
<path opacity="0.2" d="M189.5 347.722C285.321 347.722 363 270.043 363 174.222C363 78.4006 285.321 0.722046 189.5 0.722046C93.6786 0.722046 16 78.4006 16 174.222C16 270.043 93.6786 347.722 189.5 347.722Z" fill="url(#paint0_linear_63_6)"/>
<path d="M190.064 302.772C260.812 302.772 318.164 245.42 318.164 174.672C318.164 103.924 260.812 46.572 190.064 46.572C119.316 46.572 61.9641 103.924 61.9641 174.672C61.9641 245.42 119.316 302.772 190.064 302.772Z" fill="url(#paint1_linear_63_6)"/>
<path d="M368.023 104.029C374.742 104.029 380.189 98.5821 380.189 91.863C380.189 85.1439 374.742 79.697 368.023 79.697C361.304 79.697 355.857 85.1439 355.857 91.863C355.857 98.5821 361.304 104.029 368.023 104.029Z" fill="#1874CA"/>
<path d="M16.728 104.028C25.9666 104.028 33.456 96.5386 33.456 87.3C33.456 78.0614 25.9666 70.572 16.728 70.572C7.48938 70.572 0 78.0614 0 87.3C0 96.5386 7.48938 104.028 16.728 104.028Z" fill="#1874CA"/>
<path d="M290.465 313.893C294.665 313.893 298.069 310.489 298.069 306.289C298.069 302.089 294.665 298.685 290.465 298.685C286.266 298.685 282.861 302.089 282.861 306.289C282.861 310.489 286.266 313.893 290.465 313.893Z" fill="#1874CA"/>
<defs>
<linearGradient id="paint0_linear_63_6" x1="189.5" y1="0.722046" x2="189.5" y2="347.722" gradientUnits="userSpaceOnUse">
<stop stop-color="#A076E8"/>
<stop offset="0.048" stop-color="#A077E8"/>
<stop offset="1" stop-color="#B1C4F8"/>
</linearGradient>
<linearGradient id="paint1_linear_63_6" x1="190.064" y1="46.572" x2="190.064" y2="302.772" gradientUnits="userSpaceOnUse">
<stop stop-color="#0E68C3"/>
<stop offset="1" stop-color="#2E8ED9"/>
</linearGradient>
</defs>
</svg>
