<svg width="381" height="348" viewBox="0 0 381 348" fill="none" xmlns="http://www.w3.org/2000/svg">
<path opacity="0.2" d="M191.5 347.722C287.321 347.722 365 270.043 365 174.222C365 78.4006 287.321 0.722046 191.5 0.722046C95.6786 0.722046 18 78.4006 18 174.222C18 270.043 95.6786 347.722 191.5 347.722Z" fill="url(#paint0_linear_65_8)"/>
<path d="M190.936 321.708C272.639 321.708 338.872 255.475 338.872 173.772C338.872 92.0693 272.639 25.8361 190.936 25.8361C109.233 25.8361 43 92.0693 43 173.772C43 255.475 109.233 321.708 190.936 321.708Z" fill="url(#paint1_linear_65_8)"/>
<path d="M12.977 268.747C19.6961 268.747 25.143 263.3 25.143 256.581C25.143 249.862 19.6961 244.415 12.977 244.415C6.25794 244.415 0.811035 249.862 0.811035 256.581C0.811035 263.3 6.25794 268.747 12.977 268.747Z" fill="#1874CA"/>
<path d="M364.271 277.871C373.51 277.871 380.999 270.382 380.999 261.143C380.999 251.904 373.51 244.415 364.271 244.415C355.032 244.415 347.543 251.904 347.543 261.143C347.543 270.382 355.032 277.871 364.271 277.871Z" fill="#1874CA"/>
<path d="M90.5361 49.759C94.7357 49.759 98.1401 46.3546 98.1401 42.155C98.1401 37.9555 94.7357 34.551 90.5361 34.551C86.3366 34.551 82.9321 37.9555 82.9321 42.155C82.9321 46.3546 86.3366 49.759 90.5361 49.759Z" fill="#1874CA"/>
<defs>
<linearGradient id="paint0_linear_65_8" x1="18" y1="347.722" x2="365" y2="0.722046" gradientUnits="userSpaceOnUse">
<stop stop-color="#A076E8"/>
<stop offset="0.048" stop-color="#A077E8"/>
<stop offset="1" stop-color="#B1C4F8"/>
</linearGradient>
<linearGradient id="paint1_linear_65_8" x1="43" y1="321.708" x2="338.872" y2="25.8361" gradientUnits="userSpaceOnUse">
<stop stop-color="#0E68C3"/>
<stop offset="1" stop-color="#2E8ED9"/>
</linearGradient>
</defs>
</svg>
